<svg width="49" height="49" viewBox="0 0 49 49" fill="none" xmlns="http://www.w3.org/2000/svg">
<path d="M40.3512 31.5683H31.2913C30.7608 31.5683 30.2521 31.7791 29.877 32.1541C29.502 32.5292 29.2913 33.0379 29.2913 33.5683C29.2913 34.0988 29.502 34.6075 29.877 34.9826C30.2521 35.3576 30.7608 35.5683 31.2913 35.5683H36.0913C33.8851 37.8738 31.0401 39.467 27.9216 40.1431C24.8031 40.8193 21.5537 40.5475 18.5908 39.3628C15.6279 38.1781 13.087 36.1345 11.2944 33.4947C9.50188 30.8548 8.5396 27.7393 8.53125 24.5483C8.53125 24.0179 8.32054 23.5092 7.94546 23.1341C7.57039 22.7591 7.06168 22.5483 6.53125 22.5483C6.00082 22.5483 5.49211 22.7591 5.11704 23.1341C4.74196 23.5092 4.53125 24.0179 4.53125 24.5483C4.54182 28.4539 5.69569 32.271 7.85046 35.5284C10.0052 38.7858 13.0666 41.3411 16.6567 42.8788C20.2469 44.4165 24.2087 44.8694 28.0533 44.1816C31.8979 43.4938 35.4569 41.6954 38.2912 39.0083V42.5483C38.2912 43.0788 38.502 43.5875 38.877 43.9626C39.2521 44.3376 39.7608 44.5483 40.2912 44.5483C40.8217 44.5483 41.3304 44.3376 41.7055 43.9626C42.0805 43.5875 42.2912 43.0788 42.2912 42.5483V33.5483C42.2863 33.0316 42.0816 32.5368 41.7199 32.1677C41.3583 31.7986 40.8678 31.5838 40.3512 31.5683ZM24.5312 4.54834C19.404 4.56296 14.4782 6.54617 10.7712 10.0883V6.54834C10.7712 6.01791 10.5605 5.5092 10.1855 5.13413C9.81039 4.75905 9.30168 4.54834 8.77125 4.54834C8.24082 4.54834 7.73211 4.75905 7.35704 5.13413C6.98196 5.5092 6.77125 6.01791 6.77125 6.54834V15.5483C6.77125 16.0788 6.98196 16.5875 7.35704 16.9626C7.73211 17.3376 8.24082 17.5483 8.77125 17.5483H17.7712C18.3017 17.5483 18.8104 17.3376 19.1855 16.9626C19.5605 16.5875 19.7712 16.0788 19.7712 15.5483C19.7712 15.0179 19.5605 14.5092 19.1855 14.1341C18.8104 13.7591 18.3017 13.5483 17.7712 13.5483H12.9712C15.1762 11.2441 18.0194 9.65134 21.136 8.97456C24.2527 8.29777 27.5004 8.56783 30.4625 9.75006C33.4245 10.9323 35.9656 12.9728 37.7597 15.6095C39.5538 18.2463 40.5189 21.3591 40.5312 24.5483C40.5312 25.0788 40.742 25.5875 41.117 25.9626C41.4921 26.3376 42.0008 26.5483 42.5312 26.5483C43.0617 26.5483 43.5704 26.3376 43.9455 25.9626C44.3205 25.5875 44.5312 25.0788 44.5312 24.5483C44.5312 21.9219 44.0139 19.3212 43.0088 16.8947C42.0037 14.4682 40.5306 12.2634 38.6734 10.4062C36.8162 8.54903 34.6114 7.07584 32.1849 6.07075C29.7584 5.06566 27.1577 4.54834 24.5312 4.54834Z" fill="#C7CBE5"/>
</svg>
