<svg width="49" height="49" viewBox="0 0 49 49" fill="none" xmlns="http://www.w3.org/2000/svg">
<path d="M41.7202 38.9284C42.9736 37.2483 43.8338 35.3081 44.2372 33.2512C44.6405 31.1942 44.5769 29.073 44.0509 27.0439C43.5249 25.0148 42.55 23.1298 41.1982 21.5278C39.8463 19.9259 38.152 18.648 36.2402 17.7884C35.8238 15.3926 34.8668 13.1232 33.4419 11.1527C32.017 9.1822 30.1616 7.56241 28.0169 6.41642C25.8722 5.27042 23.4944 4.62836 21.0643 4.53903C18.6343 4.4497 16.2158 4.91544 13.9927 5.90088C11.7696 6.88631 9.80036 8.3655 8.23461 10.2261C6.66887 12.0866 5.54781 14.2796 4.95661 16.6383C4.36542 18.9971 4.31965 21.4596 4.82278 23.8387C5.32591 26.2178 6.3647 28.4509 7.86023 30.3684L5.08023 33.1284C4.80271 33.4096 4.61472 33.7667 4.53997 34.1547C4.46522 34.5427 4.50707 34.9441 4.66023 35.3084C4.81027 35.6736 5.06506 35.9862 5.3925 36.2069C5.71994 36.4276 6.10538 36.5464 6.50023 36.5484H17.8802C19.0135 38.9376 20.8003 40.9569 23.0337 42.3727C25.2671 43.7885 27.8559 44.5429 30.5002 44.5484H42.5002C42.8951 44.5464 43.2805 44.4276 43.6079 44.2069C43.9354 43.9862 44.1902 43.6736 44.3402 43.3084C44.4934 42.9441 44.5352 42.5427 44.4605 42.1547C44.3857 41.7668 44.1977 41.4096 43.9202 41.1284L41.7202 38.9284ZM16.5002 30.5484C16.503 31.2181 16.5565 31.8867 16.6602 32.5484H11.3202L12.0202 31.8684C12.2077 31.6824 12.3565 31.4612 12.458 31.2175C12.5595 30.9738 12.6118 30.7124 12.6118 30.4484C12.6118 30.1843 12.5595 29.9229 12.458 29.6792C12.3565 29.4355 12.2077 29.2143 12.0202 29.0284C10.8993 27.9198 10.0107 26.5988 9.40633 25.1428C8.80194 23.6868 8.4939 22.1248 8.50023 20.5484C8.50023 17.3658 9.76451 14.3135 12.0149 12.0631C14.2654 9.81264 17.3176 8.54835 20.5002 8.54835C22.9836 8.53343 25.4092 9.29712 27.4361 10.7321C29.463 12.167 30.9892 14.2011 31.8002 16.5484C31.3602 16.5484 30.9402 16.5484 30.5002 16.5484C26.7872 16.5484 23.2262 18.0234 20.6007 20.6489C17.9752 23.2744 16.5002 26.8353 16.5002 30.5484ZM37.5802 40.5484L37.6802 40.6484H30.5002C28.1869 40.6442 25.9466 39.8382 24.1609 38.3675C22.3752 36.8969 21.1546 34.8527 20.707 32.583C20.2595 30.3134 20.6126 27.9588 21.7064 25.9204C22.8001 23.882 24.5668 22.2858 26.7053 21.4038C28.8439 20.5217 31.2222 20.4085 33.4349 21.0832C35.6476 21.758 37.558 23.179 38.8405 25.1043C40.123 27.0295 40.6984 29.3399 40.4686 31.6418C40.2388 33.9436 39.2181 36.0947 37.5802 37.7284C37.2034 38.0976 36.9877 38.6008 36.9802 39.1284C36.9813 39.393 37.0349 39.6547 37.1379 39.8985C37.2409 40.1422 37.3913 40.3631 37.5802 40.5484Z" fill="#C7CBE5"/>
</svg>
