<svg width="48" height="49" viewBox="0 0 48 49" fill="none" xmlns="http://www.w3.org/2000/svg">
<path d="M42 8.54834H36V6.54834C36 6.01791 35.7893 5.5092 35.4142 5.13413C35.0391 4.75905 34.5304 4.54834 34 4.54834H14C13.4696 4.54834 12.9609 4.75905 12.5858 5.13413C12.2107 5.5092 12 6.01791 12 6.54834V8.54834H6C5.46957 8.54834 4.96086 8.75905 4.58579 9.13413C4.21071 9.5092 4 10.0179 4 10.5483V16.5483C4 18.6701 4.84285 20.7049 6.34315 22.2052C7.84344 23.7055 9.87827 24.5483 12 24.5483H15.08C16.8891 26.5666 19.3281 27.913 22 28.3683V32.5483H20C18.4087 32.5483 16.8826 33.1805 15.7574 34.3057C14.6321 35.4309 14 36.957 14 38.5483V42.5483C14 43.0788 14.2107 43.5875 14.5858 43.9626C14.9609 44.3376 15.4696 44.5483 16 44.5483H32C32.5304 44.5483 33.0391 44.3376 33.4142 43.9626C33.7893 43.5875 34 43.0788 34 42.5483V38.5483C34 36.957 33.3679 35.4309 32.2426 34.3057C31.1174 33.1805 29.5913 32.5483 28 32.5483H26V28.3683C28.6719 27.913 31.1109 26.5666 32.92 24.5483H36C38.1217 24.5483 40.1566 23.7055 41.6569 22.2052C43.1571 20.7049 44 18.6701 44 16.5483V10.5483C44 10.0179 43.7893 9.5092 43.4142 9.13413C43.0391 8.75905 42.5304 8.54834 42 8.54834ZM12 20.5483C10.9391 20.5483 9.92172 20.1269 9.17157 19.3768C8.42143 18.6266 8 17.6092 8 16.5483V12.5483H12V16.5483C12.0044 17.9118 12.2411 19.2645 12.7 20.5483H12ZM28 36.5483C28.5304 36.5483 29.0391 36.7591 29.4142 37.1341C29.7893 37.5092 30 38.0179 30 38.5483V40.5483H18V38.5483C18 38.0179 18.2107 37.5092 18.5858 37.1341C18.9609 36.7591 19.4696 36.5483 20 36.5483H28ZM32 16.5483C32 18.6701 31.1571 20.7049 29.6569 22.2052C28.1566 23.7055 26.1217 24.5483 24 24.5483C21.8783 24.5483 19.8434 23.7055 18.3431 22.2052C16.8429 20.7049 16 18.6701 16 16.5483V8.54834H32V16.5483ZM40 16.5483C40 17.6092 39.5786 18.6266 38.8284 19.3768C38.0783 20.1269 37.0609 20.5483 36 20.5483H35.3C35.7589 19.2645 35.9956 17.9118 36 16.5483V12.5483H40V16.5483Z" fill="#C7CBE5"/>
</svg>
