<svg width="48" height="49" viewBox="0 0 48 49" fill="none" xmlns="http://www.w3.org/2000/svg">
<path d="M44 19.8883C43.8736 19.5225 43.6439 19.2012 43.3386 18.9633C43.0333 18.7255 42.6656 18.5813 42.28 18.5483L30.9 16.8883L25.8 6.54834C25.6362 6.2102 25.3805 5.92502 25.0621 5.72549C24.7438 5.52595 24.3757 5.42012 24 5.42012C23.6242 5.42012 23.2561 5.52595 22.9378 5.72549C22.6194 5.92502 22.3637 6.2102 22.2 6.54834L17.1 16.8683L5.71995 18.5483C5.3498 18.601 5.0018 18.7563 4.71546 18.9967C4.42911 19.237 4.21587 19.5529 4.09995 19.9083C3.99384 20.2557 3.98432 20.6254 4.07241 20.9777C4.1605 21.3301 4.34287 21.6518 4.59995 21.9083L12.86 29.9083L10.86 41.2683C10.7792 41.6452 10.8091 42.0373 10.9459 42.3976C11.0828 42.7579 11.3208 43.0709 11.6314 43.2991C11.942 43.5273 12.3119 43.6609 12.6966 43.6838C13.0813 43.7068 13.4645 43.618 13.8 43.4283L24 38.0883L34.2 43.4283C34.4806 43.5867 34.7977 43.6694 35.12 43.6683C35.5436 43.6698 35.9568 43.5368 36.3 43.2883C36.6102 43.0661 36.8505 42.7596 36.9922 42.4052C37.134 42.0508 37.1714 41.6633 37.1 41.2883L35.1 29.9283L43.36 21.9283C43.6487 21.6837 43.8621 21.3621 43.9754 21.001C44.0887 20.6399 44.0972 20.2541 44 19.8883ZM31.7 27.8883C31.4685 28.1132 31.2948 28.3906 31.1938 28.6971C31.0928 29.0036 31.0675 29.3299 31.12 29.6483L32.56 38.0483L25.04 34.0483C24.7477 33.9038 24.426 33.8286 24.1 33.8286C23.7739 33.8286 23.4522 33.9038 23.16 34.0483L15.64 38.0483L17.08 29.6483C17.1324 29.3299 17.1071 29.0036 17.0061 28.6971C16.9051 28.3906 16.7314 28.1132 16.5 27.8883L10.5 21.8883L18.92 20.6683C19.244 20.6233 19.552 20.4994 19.817 20.3076C20.082 20.1159 20.2959 19.862 20.44 19.5683L24 11.9483L27.76 19.5883C27.904 19.882 28.118 20.1359 28.383 20.3276C28.648 20.5194 28.956 20.6433 29.28 20.6883L37.7 21.9083L31.7 27.8883Z" fill="#A1A1A9"/>
</svg>
