<svg width="49" height="49" viewBox="0 0 49 49" fill="none" xmlns="http://www.w3.org/2000/svg">
<path d="M33.9375 10.5483C32.1766 10.5469 30.4484 11.0239 28.9375 11.9283C27.842 9.41391 25.9183 7.35062 23.4866 6.08205C21.0549 4.81348 18.262 4.41618 15.573 4.95631C12.884 5.49645 10.4612 6.94142 8.70801 9.05061C6.95481 11.1598 5.97703 13.8059 5.9375 16.5483V24.5483C5.94037 27.3821 6.94599 30.1234 8.77627 32.2868C10.6065 34.4502 13.1434 35.896 15.9375 36.3683V42.5483C15.9375 43.0788 16.1482 43.5875 16.5233 43.9626C16.8984 44.3376 17.4071 44.5483 17.9375 44.5483C18.4679 44.5483 18.9766 44.3376 19.3517 43.9626C19.7268 43.5875 19.9375 43.0788 19.9375 42.5483V36.3683C21.975 36.0148 23.8886 35.1474 25.4975 33.8483C26.2115 34.9943 27.1503 35.9839 28.2571 36.7573C29.3639 37.5307 30.6159 38.0719 31.9375 38.3483V42.5483C31.9375 43.0788 32.1482 43.5875 32.5233 43.9626C32.8984 44.3376 33.4071 44.5483 33.9375 44.5483C34.4679 44.5483 34.9766 44.3376 35.3517 43.9626C35.7268 43.5875 35.9375 43.0788 35.9375 42.5483V38.3483C38.1962 37.8873 40.2263 36.66 41.6841 34.8741C43.1419 33.0883 43.938 30.8536 43.9375 28.5483V20.5483C43.9375 17.8962 42.8839 15.3526 41.0086 13.4773C39.1332 11.6019 36.5897 10.5483 33.9375 10.5483ZM23.9375 20.5483V28.5483C23.9566 28.9302 23.9967 29.3108 24.0575 29.6883C22.9879 30.9623 21.5477 31.8711 19.9375 32.2883V26.5483C19.9375 26.0179 19.7268 25.5092 19.3517 25.1341C18.9766 24.7591 18.4679 24.5483 17.9375 24.5483C17.4071 24.5483 16.8984 24.7591 16.5233 25.1341C16.1482 25.5092 15.9375 26.0179 15.9375 26.5483V32.2683C14.2246 31.8261 12.7065 30.8285 11.6209 29.4316C10.5352 28.0348 9.94324 26.3175 9.9375 24.5483V16.5483C9.93228 14.9635 10.3979 13.4128 11.2754 12.0929C12.1528 10.7731 13.4025 9.74365 14.8659 9.13515C16.3293 8.52665 17.9405 8.36652 19.495 8.6751C21.0496 8.98367 22.4775 9.74703 23.5975 10.8683C24.6802 11.9656 25.4173 13.3563 25.7175 14.8683C24.5614 16.5371 23.9405 18.5182 23.9375 20.5483ZM39.9375 28.5483C39.934 29.7862 39.5477 30.9927 38.8316 32.0025C38.1155 33.0122 37.1046 33.7757 35.9375 34.1883V26.5483C35.9375 26.0179 35.7268 25.5092 35.3517 25.1341C34.9766 24.7591 34.4679 24.5483 33.9375 24.5483C33.4071 24.5483 32.8984 24.7591 32.5233 25.1341C32.1482 25.5092 31.9375 26.0179 31.9375 26.5483V34.1883C30.7704 33.7757 29.7595 33.0122 29.0434 32.0025C28.3273 30.9927 27.941 29.7862 27.9375 28.5483V20.5483C27.9375 18.957 28.5696 17.4309 29.6949 16.3057C30.8201 15.1805 32.3462 14.5483 33.9375 14.5483C35.5288 14.5483 37.0549 15.1805 38.1801 16.3057C39.3054 17.4309 39.9375 18.957 39.9375 20.5483V28.5483Z" fill="#C7CBE5"/>
</svg>
