<svg width="49" height="49" viewBox="0 0 49 49" fill="none" xmlns="http://www.w3.org/2000/svg">
<path d="M40.4698 35.5283L30.2498 18.0083V8.54834H32.2498C32.7802 8.54834 33.2889 8.33763 33.664 7.96255C34.0391 7.58748 34.2498 7.07877 34.2498 6.54834C34.2498 6.01791 34.0391 5.5092 33.664 5.13413C33.2889 4.75905 32.7802 4.54834 32.2498 4.54834H16.2498C15.7194 4.54834 15.2107 4.75905 14.8356 5.13413C14.4605 5.5092 14.2498 6.01791 14.2498 6.54834C14.2498 7.07877 14.4605 7.58748 14.8356 7.96255C15.2107 8.33763 15.7194 8.54834 16.2498 8.54834H18.2498V18.0083L8.0298 35.5283C7.49889 36.4398 7.21763 37.4751 7.21438 38.5299C7.21114 39.5847 7.48601 40.6217 8.0113 41.5364C8.53659 42.451 9.29373 43.2111 10.2064 43.7399C11.1191 44.2687 12.155 44.5475 13.2098 44.5483H35.2098C36.2646 44.5475 37.3005 44.2687 38.2132 43.7399C39.1259 43.2111 39.883 42.451 40.4083 41.5364C40.9336 40.6217 41.2085 39.5847 41.2052 38.5299C41.202 37.4751 40.9207 36.4398 40.3898 35.5283H40.4698ZM21.9698 19.5283C22.1462 19.2313 22.2427 18.8937 22.2498 18.5483V8.54834H26.2498V18.5483C26.2535 18.9005 26.35 19.2455 26.5298 19.5483L28.2498 22.5483H20.2498L21.9698 19.5283ZM37.0098 39.5283C36.8353 39.8306 36.5847 40.082 36.283 40.2574C35.9812 40.4328 35.6388 40.5262 35.2898 40.5283H13.2898C12.9408 40.5262 12.5984 40.4328 12.2966 40.2574C11.9949 40.082 11.7443 39.8306 11.5698 39.5283C11.3943 39.2243 11.3019 38.8794 11.3019 38.5283C11.3019 38.1773 11.3943 37.8324 11.5698 37.5283L17.9098 26.5483H30.6098L37.0098 37.5483C37.1853 37.8524 37.2778 38.1973 37.2778 38.5483C37.2778 38.8994 37.1853 39.2443 37.0098 39.5483V39.5283ZM20.2498 30.5483C19.8542 30.5483 19.4676 30.6656 19.1387 30.8854C18.8098 31.1052 18.5534 31.4175 18.402 31.783C18.2507 32.1484 18.2111 32.5506 18.2882 32.9385C18.3654 33.3265 18.5559 33.6828 18.8356 33.9626C19.1153 34.2423 19.4717 34.4327 19.8596 34.5099C20.2476 34.5871 20.6497 34.5475 21.0152 34.3961C21.3806 34.2447 21.693 33.9884 21.9127 33.6595C22.1325 33.3306 22.2498 32.9439 22.2498 32.5483C22.2498 32.0179 22.0391 31.5092 21.664 31.1341C21.2889 30.7591 20.7802 30.5483 20.2498 30.5483ZM28.2498 32.5483C27.8542 32.5483 27.4676 32.6656 27.1387 32.8854C26.8098 33.1052 26.5534 33.4175 26.402 33.783C26.2507 34.1484 26.2111 34.5506 26.2882 34.9385C26.3654 35.3265 26.5559 35.6828 26.8356 35.9626C27.1153 36.2423 27.4717 36.4327 27.8596 36.5099C28.2476 36.5871 28.6497 36.5475 29.0152 36.3961C29.3806 36.2447 29.693 35.9884 29.9127 35.6595C30.1325 35.3306 30.2498 34.9439 30.2498 34.5483C30.2498 34.0179 30.0391 33.5092 29.664 33.1341C29.2889 32.7591 28.7802 32.5483 28.2498 32.5483Z" fill="#C7CBE5"/>
</svg>
