<svg width="18" height="18" viewBox="0 0 18 18" fill="none" xmlns="http://www.w3.org/2000/svg">
<path d="M8.57206 0.652832C6.87666 0.652832 5.21935 1.15557 3.80968 2.09748C2.40001 3.03939 1.30131 4.37816 0.652512 5.9445C0.00371414 7.51084 -0.166041 9.23439 0.164713 10.8972C0.495468 12.56 1.31188 14.0874 2.5107 15.2862C3.70952 16.4851 5.23692 17.3015 6.89973 17.6322C8.56255 17.963 10.2861 17.7932 11.8524 17.1444C13.4188 16.4956 14.7575 15.3969 15.6995 13.9873C16.6414 12.5776 17.1441 10.9203 17.1441 9.22488C17.1415 6.95224 16.2375 4.77343 14.6305 3.16643C13.0235 1.55943 10.8447 0.655459 8.57206 0.652832ZM12.6546 7.72387L7.81865 12.3396C7.6957 12.4566 7.53247 12.5218 7.36275 12.5218C7.19303 12.5218 7.0298 12.4566 6.90684 12.3396L4.48951 10.0317C4.36322 9.91076 4.29011 9.7446 4.28624 9.56976C4.28237 9.39492 4.34806 9.2257 4.46887 9.09925C4.58968 8.97281 4.75574 8.89949 4.93058 8.89539C5.10542 8.8913 5.27473 8.95677 5.40132 9.07742L7.36275 10.9506L11.7428 6.76956C11.8694 6.64891 12.0387 6.58344 12.2135 6.58753C12.3884 6.59163 12.5544 6.66495 12.6752 6.79139C12.7961 6.91784 12.8617 7.08706 12.8579 7.2619C12.854 7.43674 12.7809 7.6029 12.6546 7.72387Z" fill="#DB3957"/>
</svg>
