<svg width="17" height="18" viewBox="0 0 17 18" fill="none" xmlns="http://www.w3.org/2000/svg">
<path opacity="0.15" fill-rule="evenodd" clip-rule="evenodd" d="M8.64796 17.2774C13.1943 17.2774 16.8799 13.526 16.8799 8.89848C16.8799 4.27091 13.1943 0.519531 8.64796 0.519531C4.10158 0.519531 0.416016 4.27091 0.416016 8.89848C0.416016 13.526 4.10158 17.2774 8.64796 17.2774Z" fill="#36B37E"/>
<path d="M7.54908 11.5682L5.31156 9.30439C5.24904 9.24075 5.21777 9.15892 5.21777 9.05891C5.21777 8.9589 5.24904 8.87708 5.31156 8.81344L5.8073 8.32248C5.86983 8.24975 5.94798 8.21339 6.04177 8.21339C6.13556 8.21339 6.21818 8.24975 6.28964 8.32248L7.79025 9.84989L11.0058 6.57687C11.0773 6.50414 11.1599 6.46777 11.2537 6.46777C11.3475 6.46777 11.4257 6.50414 11.4882 6.57687L11.9839 7.06783C12.0465 7.13147 12.0777 7.21329 12.0777 7.3133C12.0777 7.41331 12.0465 7.49514 11.9839 7.55878L8.03142 11.5682C7.9689 11.641 7.88851 11.6773 7.79025 11.6773C7.692 11.6773 7.61161 11.641 7.54908 11.5682Z" fill="#36B37E"/>
</svg>
