<svg width="39" height="44" viewBox="0 0 39 44" fill="none" xmlns="http://www.w3.org/2000/svg">
<g style="mix-blend-mode:luminosity">
<path fill-rule="evenodd" clip-rule="evenodd" d="M17.2708 0.214712C17.2314 0.25336 17.1991 1.23715 17.1991 2.40099V4.51712L16.2157 4.56743C15.3422 4.61211 15.1581 4.6574 14.5681 4.97282C14.1306 5.20665 13.7703 5.49979 13.5127 5.83116C12.8092 6.73591 12.8054 6.76556 12.8054 11.3845V15.5292L13.2757 15.9957L13.7458 16.4624L7.27049 27.421L0.795202 38.3797L0.678247 40.4541C0.613912 41.5951 0.541103 42.6821 0.516415 42.8698C0.47865 43.157 0.499572 43.2007 0.647805 43.1451C0.744779 43.1087 1.70123 42.5195 2.77328 41.8358L4.72249 40.5927L8.0579 34.9283C9.89224 31.8129 11.4403 29.2022 11.4978 29.1267C11.5826 29.0154 11.7539 29.0552 12.4042 29.3375C16.1306 30.9553 20.8207 31.2079 24.7548 30.0029C25.3145 29.8315 26.1476 29.5343 26.6062 29.3424L27.44 28.9935L29.2023 31.978C30.1715 33.6195 31.7106 36.2292 32.6222 37.7774L34.28 40.5923L36.2463 41.8423C37.3278 42.5299 38.284 43.1191 38.3711 43.1518C38.4979 43.1994 38.5205 43.143 38.4846 42.8698C38.4599 42.6821 38.387 41.5938 38.3227 40.4515L38.2055 38.3743L34.7182 32.4704L31.2309 26.5666L32.1916 25.6012C35.32 22.4575 37.0618 18.6461 37.3482 14.3174L37.4198 13.2357H35.1661H32.9124L32.8409 14.0793C32.5798 17.1575 31.5027 19.6763 29.4516 22.0047C29.1908 22.3008 28.9406 22.5308 28.8955 22.5159C28.8505 22.501 28.0139 21.1319 27.0365 19.4736L25.2592 16.4584L25.7274 15.9938L26.1956 15.5292V11.3845C26.1956 6.76556 26.1918 6.73591 25.4883 5.83116C25.2308 5.49979 24.8704 5.20665 24.4329 4.97282C23.8432 4.65761 23.6585 4.61211 22.7874 4.56753L21.806 4.51743L21.7778 2.35856L21.7496 0.199682L19.5461 0.172179C18.3342 0.157047 17.3103 0.176166 17.2708 0.214712ZM20.5822 9.2737C21.1936 9.60415 21.59 10.2037 21.6647 10.9113C21.7452 11.674 21.3789 12.4559 20.7375 12.8903C20.3512 13.152 20.2142 13.1846 19.5018 13.1846C18.4638 13.1846 17.9848 12.9073 17.5613 12.0613C17.3176 11.5744 17.2841 11.4055 17.3354 10.9202C17.5014 9.34762 19.1613 8.50595 20.5822 9.2737ZM18.0883 20.2933C18.6158 20.5487 18.8411 20.5971 19.5005 20.5971C20.16 20.5971 20.3852 20.5487 20.9128 20.2933C21.258 20.1263 21.6347 19.9212 21.75 19.8376C21.9513 19.6916 22.0213 19.7904 23.5545 22.386C24.4318 23.8712 25.1495 25.1076 25.1495 25.1334C25.1495 25.21 23.6937 25.7306 22.9353 25.9252C20.9549 26.4334 18.1904 26.4544 16.3128 25.9757C15.113 25.6698 13.8324 25.2011 13.8749 25.0834C13.8908 25.0392 14.61 23.807 15.473 22.3452C16.9795 19.7937 17.0505 19.6936 17.2514 19.8385C17.3665 19.9216 17.7431 20.1263 18.0883 20.2933Z" fill="#FAFAFA"/>
</g>
</svg>
